<svg width="524" height="138" viewBox="0 0 524 138" fill="none" xmlns="http://www.w3.org/2000/svg">
<g clip-path="url(#clip0_8_67)">
<path d="M80.454 60.904C79.028 61.088 77.74 60.122 77.51 58.696C76.912 54.326 72.036 51.336 66.654 52.072C65.228 52.256 63.94 51.29 63.71 49.864C63.48 48.438 64.492 47.15 65.918 46.92C74.152 45.816 81.65 50.784 82.662 58.006C82.846 59.432 81.88 60.72 80.454 60.95V60.904Z" fill="#FF9966"/>
<path d="M115.092 103.5L92.092 88.826C91.632 88.366 91.172 87.86 90.804 87.308C90.252 86.526 89.654 85.744 89.102 85.008C95.174 79.488 98.992 71.576 98.992 62.744C98.992 46.092 85.468 32.568 68.816 32.568C52.164 32.568 38.64 46.092 38.64 62.744C38.64 79.396 52.164 92.92 68.816 92.92C73.968 92.92 78.844 91.632 83.076 89.332C84.18 90.114 85.284 90.942 86.388 91.724C86.94 92.092 87.446 92.552 87.906 93.012L102.58 116.012C103.27 117.07 104.19 118.036 105.34 118.772C109.572 121.44 115.138 120.198 117.852 116.012C120.52 111.78 119.278 106.214 115.092 103.5ZM44.896 62.744C44.896 49.542 55.614 38.824 68.816 38.824C82.018 38.824 92.736 49.542 92.736 62.744C92.736 75.946 82.018 86.664 68.816 86.664C55.614 86.664 44.896 75.946 44.896 62.744Z" fill="#FF9966"/>
<path d="M41.63 40.986C40.756 40.986 39.882 40.664 39.192 39.974L29.348 30.13C28.014 28.796 28.014 26.588 29.348 25.254C30.682 23.92 32.89 23.92 34.224 25.254L44.068 35.098C45.402 36.432 45.402 38.64 44.068 39.974C43.378 40.664 42.504 40.986 41.63 40.986Z" fill="#FF9966"/>
<path d="M33.442 67.758C32.798 68.402 31.97 68.77 31.004 68.77H17.066C15.18 68.77 13.616 67.206 13.616 65.32C13.616 63.434 15.18 61.87 17.066 61.87H31.004C32.89 61.87 34.454 63.434 34.454 65.32C34.454 66.286 34.086 67.114 33.442 67.758Z" fill="#FF9966"/>
<path d="M46.598 92.46C46.598 93.334 46.276 94.208 45.586 94.898L35.742 104.742C34.408 106.076 32.2 106.076 30.866 104.742C29.532 103.408 29.532 101.2 30.866 99.866L40.71 90.022C42.044 88.688 44.252 88.688 45.586 90.022C46.276 90.712 46.598 91.586 46.598 92.46Z" fill="#FF9966"/>
<path d="M73.3701 100.648C74.0141 101.292 74.3821 102.12 74.3821 103.086V117.024C74.3821 118.91 72.8181 120.474 70.9321 120.474C69.0461 120.474 67.4821 118.91 67.4821 117.024V103.086C67.4821 101.2 69.0461 99.636 70.9321 99.636C71.8981 99.636 72.7261 100.004 73.3701 100.648Z" fill="#FF9966"/>
<path d="M65.734 28.566C65.09 27.922 64.722 27.094 64.722 26.128V12.19C64.722 10.304 66.286 8.73999 68.172 8.73999C70.058 8.73999 71.622 10.304 71.622 12.19V26.128C71.622 28.014 70.058 29.578 68.172 29.578C67.206 29.578 66.378 29.21 65.734 28.566Z" fill="#FF9966"/>
<path d="M91.5859 36.846C91.5859 35.972 91.9079 35.098 92.5979 34.408L102.442 24.564C103.776 23.23 105.984 23.23 107.318 24.564C108.652 25.898 108.652 28.106 107.318 29.44L97.4739 39.284C96.1399 40.618 93.9319 40.618 92.5979 39.284C91.9079 38.594 91.5859 37.72 91.5859 36.846Z" fill="#FF9966"/>
<path d="M104.006 60.95C104.65 60.306 105.478 59.938 106.444 59.938H120.382C122.268 59.938 123.832 61.502 123.832 63.388C123.832 65.274 122.268 66.838 120.382 66.838H106.444C104.558 66.838 102.994 65.274 102.994 63.388C102.994 62.422 103.362 61.594 104.006 60.95Z" fill="#FF9966"/>
</g>
<path d="M233.352 120L232.52 114.88C231.197 116.715 229.448 118.165 227.272 119.232C225.139 120.256 222.877 120.768 220.488 120.768C216.563 120.768 213.619 119.68 211.656 117.504C209.693 115.328 208.712 112.192 208.712 108.096V86.208H221.448V106.56C221.448 108.011 221.811 109.184 222.536 110.08C223.304 110.933 224.371 111.36 225.736 111.36C227.315 111.36 228.595 110.848 229.576 109.824C230.557 108.8 231.048 107.541 231.048 106.048V86.208H243.784V120H233.352ZM296.392 85.44C300.232 85.44 303.112 86.5493 305.032 88.768C306.952 90.944 307.912 94.0587 307.912 98.112V120H295.176V99.648C295.176 98.1973 294.813 97.0453 294.088 96.192C293.405 95.296 292.424 94.848 291.144 94.848C289.65 94.848 288.434 95.36 287.496 96.384C286.557 97.408 286.088 98.6667 286.088 100.16V120H273.352V99.648C273.352 98.1973 272.989 97.0453 272.264 96.192C271.581 95.296 270.6 94.848 269.32 94.848C267.826 94.848 266.61 95.36 265.672 96.384C264.733 97.408 264.264 98.6667 264.264 100.16V120H251.528V86.208H261.96L262.792 91.264C264.072 89.472 265.757 88.064 267.848 87.04C269.981 85.9733 272.221 85.44 274.568 85.44C279.645 85.44 283.058 87.3813 284.808 91.264C286.13 89.472 287.816 88.064 289.864 87.04C291.954 85.9733 294.13 85.44 296.392 85.44ZM360.392 85.44C364.232 85.44 367.112 86.5493 369.032 88.768C370.952 90.944 371.912 94.0587 371.912 98.112V120H359.176V99.648C359.176 98.1973 358.813 97.0453 358.088 96.192C357.405 95.296 356.424 94.848 355.144 94.848C353.65 94.848 352.434 95.36 351.496 96.384C350.557 97.408 350.088 98.6667 350.088 100.16V120H337.352V99.648C337.352 98.1973 336.989 97.0453 336.264 96.192C335.581 95.296 334.6 94.848 333.32 94.848C331.826 94.848 330.61 95.36 329.672 96.384C328.733 97.408 328.264 98.6667 328.264 100.16V120H315.528V86.208H325.96L326.792 91.264C328.072 89.472 329.757 88.064 331.848 87.04C333.981 85.9733 336.221 85.44 338.568 85.44C343.645 85.44 347.058 87.3813 348.808 91.264C350.13 89.472 351.816 88.064 353.864 87.04C355.954 85.9733 358.13 85.44 360.392 85.44ZM379.976 82.24V73.6H392.712V82.24H379.976ZM379.976 120V86.208H392.712V120H379.976ZM401.288 120V73.6H414.024V120H401.288ZM446.447 118.976C444.698 123.712 442.543 127.296 439.983 129.728C437.466 132.203 433.924 133.44 429.359 133.44C426.586 133.44 424.132 133.056 421.999 132.288V124.672H427.119C430.319 124.672 432.218 123.115 432.815 120L419.375 86.208H433.071L439.535 108.672H439.983L445.935 86.208H458.479L446.447 118.976Z" fill="#0057A5"/>
<path d="M199.15 120H166V79.95L125.05 16.8H163.15L182.95 51.15H183.55L203.35 16.8H239.5L199.15 79.95V120Z" fill="#0057A5"/>
<defs>
<clipPath id="clip0_8_67">
<rect width="138" height="138" fill="white"/>
</clipPath>
</defs>
</svg>
